<?xml version="1.0" standalone="no"?>
<!DOCTYPE svg PUBLIC "-//W3C//DTD SVG 20010904//EN"
 "http://www.w3.org/TR/2001/REC-SVG-20010904/DTD/svg10.dtd">
<svg version="1.0" xmlns="http://www.w3.org/2000/svg"
 width="1056.000000pt" height="1056.000000pt" viewBox="0 0 1056.000000 1056.000000"
 preserveAspectRatio="xMidYMid meet">
<metadata>
Created by potrace 1.14, written by Peter Selinger 2001-2017
</metadata>
<g transform="translate(0.000000,1056.000000) scale(0.100000,-0.100000)"
fill="#000000" stroke="none">
<path d="M3208 8795 c-2 -2 -43 -6 -92 -10 -50 -3 -92 -8 -95 -10 -3 -1 -35
-6 -71 -10 -36 -3 -72 -8 -80 -10 -8 -2 -28 -7 -45 -9 -31 -6 -115 -22 -150
-30 -57 -12 -196 -49 -235 -63 -25 -8 -52 -16 -60 -18 -8 -2 -42 -13 -75 -25
-33 -12 -71 -25 -85 -30 -39 -12 -192 -78 -222 -96 -16 -8 -28 -12 -28 -7 0 4
-4 4 -8 -2 -4 -5 -38 -25 -77 -44 -215 -105 -486 -286 -684 -456 -176 -152
-366 -354 -504 -535 -31 -41 -60 -79 -64 -85 -5 -5 -28 -41 -53 -79 -24 -38
-50 -75 -58 -82 -7 -8 -11 -14 -8 -14 3 0 -9 -24 -28 -52 -28 -45 -73 -125
-132 -238 -16 -32 -68 -143 -69 -150 0 -3 -11 -27 -24 -55 -28 -62 -138 -388
-146 -434 -3 -19 -8 -37 -10 -41 -2 -3 -6 -17 -9 -31 -3 -13 -7 -33 -10 -44
-23 -103 -46 -237 -41 -245 3 -5 2 -10 -2 -10 -5 0 -10 -10 -10 -22 -1 -13 -4
-41 -7 -63 -15 -113 -21 -231 -21 -435 0 -245 13 -412 40 -545 4 -16 8 -43 9
-60 7 -66 48 -237 90 -375 15 -47 28 -89 29 -95 23 -79 103 -277 159 -394 28
-59 52 -108 52 -111 2 -7 51 -92 112 -194 30 -48 54 -90 54 -92 0 -2 7 -12 14
-21 8 -10 45 -60 82 -112 63 -88 83 -115 109 -145 6 -6 30 -36 55 -66 59 -72
158 -176 250 -264 41 -39 90 -86 108 -104 19 -17 36 -32 38 -32 3 0 33 -24 67
-52 35 -29 78 -64 96 -78 19 -14 40 -31 47 -37 7 -7 16 -13 19 -13 4 0 24 -13
44 -28 105 -82 448 -273 601 -336 25 -10 59 -24 75 -31 17 -7 52 -20 79 -29
27 -10 54 -20 60 -24 6 -3 16 -7 21 -8 6 -1 63 -18 127 -38 102 -31 188 -53
269 -70 13 -3 35 -8 49 -11 14 -3 43 -8 64 -10 21 -3 42 -7 45 -9 3 -3 31 -7
61 -10 30 -3 66 -8 80 -11 14 -3 68 -8 120 -12 122 -10 2506 -10 2585 -1 306
38 617 187 840 403 55 53 118 101 170 128 47 24 100 44 100 37 0 -2 9 1 20 7
40 22 155 30 240 18 122 -17 190 -51 278 -139 114 -113 241 -197 407 -269 51
-22 156 -58 187 -63 15 -3 58 -12 96 -20 38 -8 73 -12 78 -8 5 3 9 2 9 -3 0
-15 273 -22 390 -9 251 26 448 92 620 205 75 49 84 56 167 136 84 82 75 97 74
-112 l-1 -123 68 -1 c85 0 1084 0 1095 1 9 0 4 2719 -6 2770 -3 19 -9 53 -12
75 -3 22 -8 51 -11 65 -3 14 -8 39 -11 55 -8 47 -72 234 -101 295 -25 54 -118
210 -131 220 -3 3 -18 21 -32 40 -26 34 -138 150 -176 181 -16 13 -98 77 -138
107 -112 84 -376 204 -535 242 -43 10 -59 14 -117 26 -71 14 -142 22 -246 29
-49 3 -93 8 -98 11 -5 3 -9 1 -9 -5 0 -6 -11 -6 -30 -1 -16 5 -30 6 -30 2 0
-4 -35 -7 -78 -8 -67 0 -107 -4 -232 -19 -43 -5 -105 -17 -111 -21 -3 -2 -21
-6 -40 -9 -46 -9 -64 -13 -64 -15 0 -1 -7 -3 -15 -5 -103 -20 -425 -170 -478
-222 -7 -7 -17 -13 -21 -13 -4 0 -17 -8 -28 -17 -12 -10 -38 -31 -59 -47 -35
-26 -198 -189 -232 -230 -35 -43 -96 -144 -131 -214 -59 -120 -98 -240 -126
-392 -4 -22 -16 -144 -18 -177 -1 -16 -27 -4 -27 13 0 8 -7 17 -15 20 -8 4
-15 10 -15 14 0 5 -31 54 -70 110 l-70 101 17 27 c15 23 63 90 91 127 4 6 24
35 44 65 20 30 73 107 118 170 44 63 83 122 87 130 4 8 9 17 13 20 5 4 80 110
140 200 40 58 131 187 139 197 6 7 11 15 11 18 0 3 5 11 10 18 9 10 100 141
202 290 7 11 31 44 54 75 22 32 49 72 59 90 11 17 22 32 26 32 4 0 9 8 13 18
3 9 64 100 135 202 164 233 136 193 301 433 34 48 110 158 170 245 61 86 114
164 120 172 113 162 131 194 113 201 -10 3 -30 3 -45 -2 -15 -4 -30 -4 -33 1
-3 5 -19 5 -35 0 -17 -5 -32 -5 -35 0 -3 6 -16 5 -29 0 -13 -5 -27 -6 -30 -3
-7 7 -95 8 -102 0 -3 -3 -18 -1 -34 3 -16 4 -31 6 -34 3 -3 -3 -32 -5 -63 -4
-32 1 -65 1 -73 1 -8 0 -24 0 -35 0 -11 1 -26 1 -32 1 -7 -1 -20 -1 -28 -1 -8
0 -22 0 -30 0 -8 0 -21 0 -27 0 -7 0 -37 0 -66 1 -29 1 -55 0 -58 -4 -3 -3
-18 -1 -34 3 -16 4 -31 6 -34 2 -7 -7 -105 -6 -113 1 -2 3 -18 1 -34 -3 -16
-5 -31 -5 -34 0 -3 5 -19 5 -35 0 -17 -5 -32 -5 -35 0 -3 5 -16 5 -30 0 -13
-5 -26 -6 -29 -2 -3 5 -30 5 -61 2 -31 -3 -58 -3 -61 2 -3 4 -16 3 -29 -2 -15
-6 -27 -6 -30 0 -4 6 -13 7 -23 1 -10 -5 -24 -6 -33 0 -12 6 -22 1 -37 -16
-12 -14 -22 -28 -22 -30 0 -3 -5 -11 -11 -18 -6 -7 -48 -66 -94 -132 -46 -66
-105 -149 -131 -185 -25 -36 -98 -139 -161 -230 -64 -91 -119 -167 -123 -170
-4 -3 -14 -18 -23 -35 -8 -16 -25 -41 -36 -55 -12 -13 -31 -40 -43 -60 -12
-19 -26 -39 -32 -45 -6 -5 -42 -56 -80 -112 -38 -57 -73 -103 -76 -103 -4 0
-15 19 -25 43 -26 62 -162 336 -187 377 -12 19 -26 44 -32 55 -51 90 -95 146
-129 165 -99 56 -214 -7 -221 -122 -2 -38 6 -56 62 -148 116 -187 287 -555
308 -659 5 -23 -10 -49 -85 -157 -50 -71 -94 -134 -99 -139 -5 -6 -17 -24 -28
-40 -10 -17 -21 -32 -24 -35 -3 -3 -14 -18 -26 -35 -86 -123 -337 -481 -340
-484 -2 -2 -6 -2 -9 1 -3 3 0 12 7 19 16 16 53 94 75 154 70 197 54 434 -43
628 -20 40 -39 74 -43 77 -15 12 -32 57 -31 85 0 17 0 37 0 45 0 8 0 40 0 70
0 30 0 92 -1 137 0 46 2 87 5 92 4 5 2 12 -3 15 -5 3 -5 21 -1 41 4 19 4 37 0
40 -4 3 -4 21 0 40 4 19 4 37 0 40 -4 3 -4 21 0 40 4 19 4 37 0 40 -4 3 -4 21
0 40 4 19 4 37 0 40 -4 3 -4 21 0 40 4 19 4 37 0 40 -4 3 -4 21 0 40 4 20 4
38 -1 41 -5 3 -6 10 -3 16 4 6 6 64 6 128 -1 85 2 117 11 117 7 0 29 8 50 18
89 42 113 150 50 226 -32 38 -64 52 -126 55 -26 1 -51 4 -54 7 -3 3 -16 2 -29
-3 -13 -5 -26 -6 -29 0 -3 5 -18 5 -35 0 -17 -5 -30 -5 -30 0 0 5 -12 5 -27 1
-16 -4 -39 -5 -53 -1 -14 3 -44 3 -68 0 -23 -4 -45 -3 -48 1 -2 5 -16 4 -29
-1 -15 -6 -27 -6 -30 0 -3 6 -15 6 -30 0 -14 -5 -27 -5 -30 0 -3 5 -18 5 -34
0 -16 -4 -32 -6 -35 -3 -3 3 -28 6 -56 6 -28 0 -53 -3 -56 -6 -3 -3 -18 -1
-34 3 -16 4 -31 6 -34 3 -3 -3 -32 -5 -63 -4 -32 1 -65 1 -73 1 -8 0 -24 0
-35 0 -11 1 -26 1 -32 1 -7 -1 -20 -1 -28 -1 -8 0 -22 0 -30 0 -8 0 -21 0 -27
0 -7 0 -37 0 -66 1 -29 1 -55 0 -58 -4 -3 -3 -19 -1 -35 3 -16 5 -31 5 -34 0
-3 -4 -15 -6 -27 -2 -17 4 -20 2 -15 -11 3 -9 2 -19 -3 -22 -6 -3 -6 -15 0
-30 5 -14 5 -27 0 -30 -5 -3 -5 -18 0 -35 5 -17 6 -30 2 -30 -6 0 -7 -91 -3
-235 1 -16 1 -38 1 -47 0 -10 0 -25 0 -33 0 -8 0 -22 0 -30 0 -8 0 -22 0 -30
0 -8 0 -22 0 -30 0 -8 0 -22 0 -30 0 -8 0 -22 0 -30 0 -8 0 -22 0 -30 0 -8 0
-22 0 -30 0 -8 0 -22 0 -30 0 -8 0 -22 0 -30 0 -8 0 -22 0 -30 0 -8 0 -22 0
-30 0 -8 0 -22 0 -30 0 -8 0 -22 0 -30 0 -8 0 -22 0 -30 0 -8 0 -22 0 -30 0
-8 0 -22 0 -30 0 -8 0 -22 0 -30 0 -8 0 -22 0 -30 0 -8 0 -21 0 -27 0 -7 0
-37 1 -66 1 -29 0 -55 -4 -58 -3 -3 -1 -19 3 -35 5 -16 5 -29 1 -29 -5 0 -5
-18 -1 -40 4 -22 4 -40 -1 -40 -4 0 -4 -13 1 -30 5 -16 5 -30 0 -30 -4 0 -6
-9 -3 -20 5 -18 -29 -87 -51 -102 -6 -4 -7 -8 -3 -8 4 0 -4 -16 -19 -35 -14
-19 -23 -35 -20 -35 4 0 -3 -19 -15 -41 -25 -50 -50 -129 -43 -140 2 -4 1 -10
-4 -13 -16 -10 -22 -211 -9 -297 16 -106 62 -224 123 -315 20 -30 38 -66 40
-79 1 -13 4 -28 7 -32 3 -5 2 -15 -3 -23 -4 -7 -4 -24 0 -36 6 -14 5 -26 0
-29 -5 -3 -5 -18 0 -35 5 -17 5 -30 0 -30 -5 0 -5 -13 0 -30 5 -17 5 -30 0
-30 -5 0 -5 -13 0 -30 5 -17 5 -30 0 -30 -5 0 -5 -13 0 -30 5 -17 5 -30 0 -30
-5 0 -5 -13 0 -29 4 -15 4 -34 0 -42 -5 -7 -5 -20 0 -29 5 -9 5 -22 0 -30 -5
-8 -6 -18 -3 -24 6 -8 5 -107 0 -113 -1 -1 -38 -5 -82 -8 -263 -23 -516 -192
-638 -426 -29 -55 -71 -162 -70 -179 0 -3 -5 -28 -12 -56 -22 -95 -10 -292 23
-384 3 -8 6 -22 8 -30 5 -26 83 -174 111 -210 35 -45 172 -180 183 -180 5 0
15 -6 22 -13 20 -19 107 -63 168 -86 78 -28 126 -39 200 -46 98 -9 90 4 90
-147 0 -10 0 -24 0 -30 0 -7 0 -37 1 -66 1 -29 0 -55 -4 -58 -3 -3 -1 -19 3
-35 5 -16 6 -29 2 -29 -4 0 -7 -34 -7 -75 0 -41 3 -75 7 -75 4 0 3 -13 -2 -28
-4 -16 -4 -35 1 -43 4 -8 4 -21 -1 -29 -4 -7 -4 -24 0 -36 5 -13 5 -26 1 -29
-5 -3 -7 -13 -4 -24 3 -14 -5 -22 -37 -35 -67 -26 -289 -87 -373 -101 -17 -3
-40 -8 -50 -11 -10 -3 -32 -7 -50 -9 -18 -3 -50 -7 -72 -10 -22 -4 -51 -8 -65
-10 -89 -14 -202 -19 -395 -19 -189 -1 -268 3 -387 19 -13 1 -50 6 -83 10 -33
4 -63 9 -66 11 -4 2 -24 6 -45 9 -93 14 -379 89 -439 115 -11 5 -38 14 -60 22
-22 7 -49 18 -60 25 -11 7 -25 13 -32 13 -36 0 -404 187 -495 251 -14 11 -31
19 -36 19 -6 0 -12 4 -14 8 -2 5 -32 28 -67 53 -97 67 -175 125 -207 154 -6 6
-40 35 -75 65 -111 96 -251 241 -354 365 -28 33 -53 62 -57 63 -5 2 -8 8 -8
13 0 5 -22 37 -48 72 -42 53 -90 126 -164 245 -92 149 -258 517 -293 652 -3 8
-14 49 -26 90 -18 64 -30 114 -55 225 -2 11 -7 35 -10 54 -3 18 -8 43 -10 55
-3 11 -7 41 -10 66 -3 25 -9 58 -14 73 -7 20 -6 26 2 21 6 -4 8 -3 4 4 -20 32
-29 481 -13 637 4 39 9 88 11 110 2 22 7 54 10 71 3 17 8 46 10 65 3 19 10 57
16 84 6 28 13 61 16 75 13 65 48 197 55 211 4 9 10 27 13 40 6 33 71 209 90
248 9 17 16 32 15 33 -8 14 148 320 212 416 16 24 29 47 29 52 0 5 6 15 13 22
8 7 27 33 43 57 50 75 104 150 129 177 6 6 23 28 39 49 67 85 234 257 352 363
63 57 277 222 312 241 11 6 27 17 34 23 13 12 24 19 81 51 12 6 24 15 27 18
16 18 325 176 398 203 20 8 90 34 155 59 64 25 117 43 117 41 0 -2 17 3 38 11
20 7 57 19 82 26 42 10 54 13 105 24 11 3 31 7 45 11 49 11 116 25 145 29 17
2 30 4 30 5 0 1 14 3 30 5 17 2 48 7 70 9 120 17 191 20 400 20 210 0 307 -5
390 -19 17 -3 46 -7 65 -9 19 -3 35 -5 35 -6 0 -1 16 -3 35 -5 52 -7 95 -13
95 -15 0 -1 11 -3 25 -6 14 -2 41 -8 60 -13 19 -5 79 -22 133 -36 185 -50 517
-177 517 -198 0 -6 3 -8 6 -5 3 4 36 -10 72 -29 131 -70 197 -107 209 -118 6
-7 25 -18 42 -25 17 -7 31 -16 31 -20 0 -15 107 -33 125 -22 5 3 16 7 23 8 43
7 93 95 86 153 -7 51 -38 92 -107 137 -33 21 -65 41 -71 43 -6 2 -39 22 -74
43 -34 21 -66 38 -71 38 -5 0 -14 7 -21 15 -7 9 -15 13 -17 11 -3 -2 -37 12
-76 33 -40 21 -112 54 -162 75 -110 46 -365 138 -365 131 0 -3 -13 1 -30 10
-16 8 -33 14 -37 13 -4 -1 -33 5 -63 14 -30 9 -73 19 -95 24 -22 4 -44 9 -50
10 -27 8 -170 33 -220 39 -16 2 -57 7 -90 11 -33 4 -77 8 -97 8 -21 1 -38 3
-38 6 0 6 -486 11 -492 5z m2578 -3351 c-9 -8 -16 -20 -16 -26 0 -6 -3 -9 -6
-6 -8 9 14 48 27 48 6 0 3 -7 -5 -16z m3293 -334 c85 -28 126 -53 179 -109 72
-76 117 -189 128 -321 3 -40 6 -243 5 -377 l-1 -93 -72 48 c-165 109 -327 171
-603 228 -88 18 -518 27 -590 12 -16 -4 -47 -9 -68 -12 -107 -16 -302 -85
-413 -145 l-54 -29 -78 111 c-42 62 -81 119 -87 128 -5 9 -34 51 -62 92 -29
42 -53 78 -53 80 0 3 243 5 541 5 297 0 543 2 545 4 2 2 6 29 9 59 7 63 54
167 91 201 14 12 33 30 42 39 103 96 366 135 541 79z m-3251 -376 c18 -28 41
-62 52 -74 11 -12 22 -31 25 -41 4 -11 11 -19 16 -19 5 0 9 -6 9 -14 0 -8 4
-16 8 -18 5 -1 46 -59 93 -128 46 -69 88 -129 92 -135 5 -5 44 -61 87 -124
l78 -115 -29 -60 c-50 -102 -100 -197 -109 -206 -10 -10 -41 -65 -47 -82 -3
-10 -9 -18 -14 -18 -5 0 -9 -4 -9 -10 0 -18 -189 -280 -202 -280 -4 0 -8 -5
-8 -10 0 -6 -12 -24 -27 -41 -16 -17 -40 -45 -55 -62 l-28 -31 -1 35 c-2 128
1 270 6 278 3 5 1 12 -4 15 -5 3 -5 21 -1 41 4 19 4 37 0 40 -4 3 -4 21 0 40
4 19 4 37 0 40 -4 3 -4 21 0 40 4 19 4 37 0 40 -4 3 -4 21 0 40 4 19 4 37 0
40 -4 3 -4 21 0 40 4 19 4 37 0 40 -4 3 -4 21 0 40 4 20 4 38 -1 41 -5 3 -6
10 -3 16 8 13 8 144 -1 158 -3 5 -3 10 2 10 8 0 7 104 -1 127 -3 7 -2 15 3 17
4 3 5 26 1 51 -4 24 -4 47 -2 50 7 7 5 112 -2 123 -2 4 -1 14 3 21 5 7 5 30 1
51 -4 22 -5 42 -1 45 3 3 4 23 2 43 -3 36 -2 37 16 17 10 -11 33 -43 51 -71z
m-1350 -312 c-1 -16 2 -33 5 -39 3 -5 2 -15 -2 -22 -5 -7 -5 -28 -1 -47 4 -19
4 -36 0 -39 -5 -3 -5 -19 0 -35 5 -17 6 -30 2 -30 -8 0 -6 -95 2 -116 3 -8 2
-14 -3 -14 -5 0 -5 -15 -2 -32 4 -18 4 -48 0 -65 -4 -18 -3 -33 1 -33 5 0 5
-13 0 -30 -5 -17 -5 -30 0 -30 5 0 5 -13 0 -30 -5 -17 -5 -30 0 -30 5 0 5 -13
0 -30 -5 -16 -6 -30 -2 -30 8 0 7 -182 -1 -203 -3 -7 -1 -20 3 -27 5 -8 5 -21
0 -30 -5 -9 -5 -22 -1 -29 5 -7 6 -22 3 -33 -4 -18 -11 -19 -61 -15 -142 13
-266 83 -358 202 -117 152 -132 381 -36 553 82 147 247 251 413 260 37 3 39 1
38 -26z m2081 -745 c34 -48 61 -90 61 -93 0 -3 5 -10 10 -17 47 -55 60 -74 60
-84 0 -6 4 -13 8 -15 4 -1 37 -46 72 -98 36 -52 70 -101 77 -108 7 -7 13 -17
13 -22 0 -5 6 -15 13 -22 41 -42 205 -299 214 -336 l11 -42 -77 1 c-104 1
-177 -9 -271 -36 -30 -8 -61 -17 -68 -18 -7 -2 -18 -9 -24 -15 -7 -7 -18 -12
-25 -12 -37 0 -184 -101 -280 -193 -26 -25 -61 -56 -78 -68 -16 -13 -32 -26
-35 -29 -14 -17 -153 -101 -205 -125 -79 -36 -191 -75 -236 -81 -33 -5 -37 -3
-41 20 -3 13 -2 30 2 37 5 6 4 23 0 38 -4 14 -4 35 0 46 4 11 4 32 -1 47 -4
15 -4 30 0 33 4 2 5 24 2 47 -3 24 -4 66 -1 93 3 28 2 59 -1 71 -4 11 -4 26 0
33 5 7 5 31 0 54 l-7 41 108 111 c60 60 119 122 132 136 61 68 124 143 132
158 5 9 14 21 20 27 36 39 126 162 126 173 0 5 3 11 8 13 8 3 100 145 128 198
11 19 21 37 24 40 3 3 16 26 30 52 13 26 27 44 31 40 4 -4 34 -47 68 -95z
m2361 -21 c68 -8 83 -10 140 -27 25 -7 47 -13 50 -14 20 -4 110 -51 110 -57 0
-5 4 -8 10 -8 11 0 40 -23 77 -60 70 -70 100 -215 69 -324 -20 -66 -22 -70
-94 -144 -77 -78 -201 -132 -346 -149 -57 -7 -280 -6 -311 1 -11 2 -26 5 -33
5 -16 1 -72 61 -72 77 0 7 -4 14 -8 16 -5 2 -30 35 -55 73 -26 39 -50 75 -55
80 -37 47 -152 225 -152 236 0 32 50 117 93 160 43 43 92 73 162 100 95 38
263 52 415 35z m-4015 -1416 c3 -5 -1 -10 -10 -10 -9 0 -13 5 -10 10 3 6 8 10
10 10 2 0 7 -4 10 -10z m125 0 c0 -5 -15 -9 -32 -9 l-33 1 30 8 c17 4 31 8 33
9 1 0 2 -3 2 -9z m115 0 c4 -6 -7 -10 -27 -9 -31 1 -32 1 -8 9 14 4 26 8 27 9
1 1 5 -3 8 -9z m175 -6 c0 -2 -11 -4 -25 -4 -14 0 -25 4 -25 9 0 4 11 6 25 3
14 -2 25 -6 25 -8z m60 6 c0 -5 -12 -10 -27 -9 l-28 1 25 8 c14 4 26 8 28 9 1
1 2 -3 2 -9z m160 -5 c0 -1 -21 -2 -47 -2 -40 0 -43 1 -18 6 26 6 65 4 65 -4z
m64 7 c2 -4 -10 -8 -27 -9 -30 -1 -30 -1 -7 7 14 4 26 8 27 9 1 1 4 -3 7 -7z
m-651 -9 c-7 -2 -19 -2 -25 0 -7 3 -2 5 12 5 14 0 19 -2 13 -5z m120 0 c-7 -2
-19 -2 -25 0 -7 3 -2 5 12 5 14 0 19 -2 13 -5z m120 0 c-7 -2 -19 -2 -25 0 -7
3 -2 5 12 5 14 0 19 -2 13 -5z m60 0 c-7 -2 -21 -2 -30 0 -10 3 -4 5 12 5 17
0 24 -2 18 -5z m180 0 c-7 -2 -21 -2 -30 0 -10 3 -4 5 12 5 17 0 24 -2 18 -5z"/>
<path d="M3254 7915 c-49 -13 -102 -28 -119 -35 -16 -6 -31 -11 -32 -11 -5 1
-126 -72 -146 -88 -212 -167 -326 -387 -330 -635 -1 -107 6 -161 34 -253 20
-67 64 -166 84 -190 6 -7 16 -19 23 -27 6 -8 12 -19 12 -24 0 -18 153 -164
208 -199 48 -31 114 -64 177 -88 55 -22 177 -45 246 -46 64 -2 187 9 202 18 4
2 20 7 35 9 15 3 61 20 102 37 216 93 378 269 455 492 17 51 20 63 32 150 22
160 -8 329 -83 472 -123 232 -306 368 -577 429 -12 3 -70 7 -128 9 -84 2 -123
-2 -195 -20z m296 -290 c19 -3 69 -22 110 -43 170 -84 282 -259 282 -442 0
-63 -7 -135 -12 -135 -1 0 -3 -11 -6 -24 -9 -47 -75 -157 -126 -209 -28 -28
-55 -52 -59 -52 -4 0 -14 -7 -22 -15 -8 -8 -40 -26 -71 -40 -103 -47 -216 -57
-343 -31 -67 14 -173 78 -237 143 -49 50 -104 149 -123 221 -33 122 -12 277
53 387 25 43 94 119 142 157 97 77 256 109 412 83z"/>
<path d="M1605 6705 c-243 -50 -456 -209 -562 -420 -40 -79 -51 -108 -72 -195
-20 -78 -25 -268 -10 -324 4 -17 10 -42 13 -56 9 -44 39 -125 48 -128 4 -2 8
-11 8 -19 0 -37 122 -197 210 -276 69 -61 226 -140 325 -162 17 -4 39 -9 50
-12 57 -15 234 -10 315 8 47 11 91 20 98 21 6 1 12 5 12 10 0 4 7 8 15 8 9 0
30 8 48 17 18 9 35 17 39 18 4 0 13 6 20 13 6 6 16 12 21 12 5 0 14 6 21 13 8
6 24 19 37 27 29 19 135 124 171 170 58 73 135 252 142 329 1 21 5 42 8 47 7
11 2 221 -5 249 -3 11 -8 34 -12 50 -39 168 -158 347 -303 453 -87 64 -233
133 -292 138 -8 0 -26 5 -40 9 -41 13 -240 13 -305 0z m317 -313 c164 -58 280
-183 326 -348 77 -276 -93 -564 -370 -629 -332 -77 -648 187 -624 520 5 83 8
99 20 127 4 9 9 22 10 30 4 25 56 118 66 118 6 0 10 6 10 12 0 13 99 108 112
108 4 0 13 6 20 13 19 18 90 48 150 62 74 18 210 11 280 -13z"/>
<path d="M3350 5873 c-52 -8 -147 -46 -200 -81 -66 -42 -135 -120 -172 -193
-41 -83 -43 -90 -53 -179 -9 -73 -10 -63 10 -175 21 -124 150 -283 276 -343
72 -34 103 -41 200 -48 109 -9 268 40 335 103 14 13 28 23 32 23 13 1 89 104
115 155 37 74 50 131 52 220 3 151 -54 288 -162 388 -47 43 -134 94 -195 112
-51 16 -187 26 -238 18z m177 -316 c82 -43 123 -116 118 -209 -7 -109 -87
-187 -196 -193 -150 -9 -258 125 -218 271 13 51 66 112 116 134 47 22 135 20
180 -3z"/>
<path d="M2280 4741 c0 -4 -8 -7 -17 -8 -83 -4 -156 -31 -320 -121 -37 -21
-177 -162 -210 -211 -66 -101 -97 -175 -128 -298 -14 -62 -17 -259 -3 -311 28
-110 43 -154 75 -217 53 -106 104 -170 222 -273 43 -38 231 -141 231 -126 0 2
13 -2 29 -10 16 -9 31 -12 34 -9 4 3 12 2 19 -3 20 -15 63 -19 188 -18 105 0
183 8 203 21 4 2 19 7 34 9 38 7 164 67 220 105 170 115 312 338 340 534 9 64
8 230 -1 275 -14 71 -29 125 -36 135 -4 6 -13 27 -19 47 -19 57 -104 181 -168
246 -157 157 -339 233 -570 237 -68 1 -123 -1 -123 -4z m250 -312 c38 -10 94
-34 127 -53 62 -36 163 -131 163 -153 0 -7 3 -13 8 -13 6 0 41 -66 47 -90 1
-3 7 -25 15 -50 33 -112 12 -278 -50 -384 -28 -49 -111 -146 -124 -146 -4 0
-16 -9 -28 -20 -12 -11 -28 -20 -35 -20 -7 0 -13 -4 -13 -9 0 -5 -12 -12 -27
-17 -36 -10 -33 -9 -68 -24 -16 -7 -73 -14 -125 -16 -153 -6 -281 44 -385 150
-152 154 -189 392 -90 586 107 212 357 322 585 259z"/>
</g>
</svg>
