<svg width="52" height="52" viewBox="0 0 52 52" fill="none" xmlns="http://www.w3.org/2000/svg">
<circle cx="26" cy="26" r="26" fill="#89CB36" fill-opacity="0.3"/>
<path d="M26 0C30.108 4.89873e-08 34.1575 0.973405 37.8167 2.84044C41.4759 4.70748 44.6407 7.41501 47.0515 10.7412C49.4624 14.0673 51.0509 17.9174 51.6867 21.9759C52.3225 26.0343 51.9876 30.1857 50.7094 34.0898C49.4312 37.9939 47.2461 41.5395 44.3332 44.4362C41.4203 47.3328 37.8625 49.498 33.9513 50.7543C30.0401 52.0106 25.8869 52.3223 21.8321 51.6638C17.7772 51.0052 13.9361 49.3952 10.6235 46.9658L15.302 40.5867C17.6067 42.277 20.2791 43.3971 23.1002 43.8553C25.9213 44.3135 28.8109 44.0966 31.532 43.2226C34.2532 42.3485 36.7285 40.8421 38.7552 38.8268C40.7818 36.8115 42.302 34.3446 43.1913 31.6284C44.0806 28.9122 44.3136 26.0239 43.8713 23.2002C43.4289 20.3766 42.3237 17.6979 40.6464 15.3838C38.969 13.0697 36.7672 11.186 34.2214 9.88698C31.6755 8.58801 28.8581 7.91077 26 7.91077V0Z" fill="#89CB36"/>
</svg>
