<svg width="52" height="52" viewBox="0 0 52 52" fill="none" xmlns="http://www.w3.org/2000/svg">
<circle cx="26" cy="26" r="26" fill="#78CB36" fill-opacity="0.3"/>
<path d="M26 0C30.711 5.61778e-08 35.3334 1.27996 39.3734 3.70312C43.4134 6.12627 46.7192 9.60155 48.9374 13.7576C51.1556 17.9137 52.203 22.5943 51.9675 27.2994C51.7321 32.0045 50.2227 36.5572 47.6007 40.4711C44.9786 44.3849 41.3425 47.5128 37.0807 49.5206C32.819 51.5283 28.0919 52.3404 23.4044 51.8701C18.717 51.3998 14.2454 49.6648 10.4675 46.8504C6.68955 44.0361 3.74727 40.2481 1.95504 35.8914L9.27097 32.8818C10.5179 35.913 12.565 38.5484 15.1934 40.5065C17.8219 42.4645 20.9329 43.6717 24.1942 43.9989C27.4554 44.3261 30.7443 43.7611 33.7093 42.3642C36.6744 40.9673 39.2042 38.7911 41.0284 36.0681C42.8527 33.3451 43.9028 30.1776 44.0666 26.9041C44.2304 23.6305 43.5018 20.374 41.9585 17.4825C40.4151 14.591 38.1152 12.1731 35.3044 10.4872C32.4936 8.80129 29.2776 7.91077 26 7.91077V0Z" fill="#78CB36"/>
</svg>
