<svg width="52" height="52" viewBox="0 0 52 52" fill="none" xmlns="http://www.w3.org/2000/svg">
<circle cx="26" cy="26" r="26" fill="#34EA16" fill-opacity="0.3"/>
<path d="M26 0C31.8893 7.02295e-08 37.6042 1.99943 42.209 5.67096C46.8137 9.34249 50.0356 14.4686 51.3471 20.21C52.6586 25.9515 51.982 31.9681 49.4282 37.2748C46.8743 42.5816 42.5944 46.8641 37.2892 49.4212C31.984 51.9784 25.9678 52.6586 20.2255 51.3507C14.4833 50.0427 9.35524 46.8239 5.68089 42.2214C2.00654 37.6189 0.00361052 31.9052 4.87281e-06 26.0159C-0.00360078 20.1266 1.99233 14.4105 5.66104 9.80349L11.8494 14.7314C9.29692 17.9367 7.90827 21.9136 7.91077 26.0111C7.91328 30.1085 9.3068 34.0837 11.8632 37.2859C14.4196 40.488 17.9874 42.7274 21.9825 43.6375C25.9776 44.5475 30.1633 44.0742 33.8543 42.2951C37.5454 40.516 40.523 37.5365 42.2999 33.8443C44.0767 30.1522 44.5475 25.9662 43.635 21.9717C42.7225 17.9771 40.4809 14.4107 37.2772 11.8563C34.0735 9.30186 30.0974 7.91077 26 7.91077V0Z" fill="#34EA16"/>
</svg>
