<svg width="52" height="52" viewBox="0 0 52 52" fill="none" xmlns="http://www.w3.org/2000/svg">
<circle cx="26" cy="26" r="26" fill="#89CB36" fill-opacity="0.3"/>
<path d="M17.3331 24.864C18.2778 24.8813 19.0448 25.1847 19.6341 25.774C20.2321 26.3547 20.5311 27.1 20.5311 28.01C20.5311 28.9373 20.2234 29.7 19.6081 30.298C18.9928 30.8873 18.1998 31.182 17.2291 31.182C16.2584 31.182 15.4654 30.8873 14.8501 30.298C14.2434 29.7087 13.9401 28.946 13.9401 28.01C13.9401 27.2993 14.1178 26.6883 14.4731 26.177L17.3071 21.9H19.3611L17.3331 24.864ZM16.1501 29.089C16.4361 29.3577 16.7958 29.492 17.2291 29.492C17.6624 29.492 18.0221 29.3577 18.3081 29.089C18.6028 28.8203 18.7501 28.4607 18.7501 28.01C18.7501 27.568 18.6028 27.2127 18.3081 26.944C18.0221 26.6753 17.6624 26.541 17.2291 26.541C16.7958 26.541 16.4361 26.6753 16.1501 26.944C15.8641 27.204 15.7211 27.5593 15.7211 28.01C15.7211 28.4607 15.8641 28.8203 16.1501 29.089ZM21.3918 31V29.141H23.2378V31H21.3918ZM24.2203 21.9H30.0963V23.421L27.0153 31H25.1173L28.1203 23.616H24.2203V21.9ZM34.2654 31.182C33.1301 31.182 32.2374 30.753 31.5874 29.895C30.9461 29.0283 30.6254 27.88 30.6254 26.45C30.6254 25.02 30.9461 23.876 31.5874 23.018C32.2374 22.1513 33.1301 21.718 34.2654 21.718C35.4094 21.718 36.3021 22.1513 36.9434 23.018C37.5847 23.876 37.9054 25.02 37.9054 26.45C37.9054 27.88 37.5847 29.0283 36.9434 29.895C36.3021 30.753 35.4094 31.182 34.2654 31.182ZM32.8874 28.673C33.1994 29.1757 33.6587 29.427 34.2654 29.427C34.8721 29.427 35.3314 29.1713 35.6434 28.66C35.9641 28.1487 36.1244 27.412 36.1244 26.45C36.1244 25.4793 35.9641 24.7383 35.6434 24.227C35.3314 23.7157 34.8721 23.46 34.2654 23.46C33.6587 23.46 33.1994 23.7157 32.8874 24.227C32.5754 24.7383 32.4194 25.4793 32.4194 26.45C32.4194 27.4207 32.5754 28.1617 32.8874 28.673Z" fill="white"/>
<path d="M26 0C29.7369 4.45619e-08 33.4299 0.805527 36.8273 2.3617C40.2248 3.91787 43.2468 6.18811 45.6876 9.01774C48.1284 11.8474 49.9306 15.1699 50.9713 18.7589C52.0121 22.348 52.2669 26.1192 51.7185 29.8156C51.1701 33.512 49.8313 37.0468 47.7934 40.1791C45.7555 43.3114 43.0663 45.9676 39.9091 47.9667C36.752 49.9658 33.2009 51.2609 29.498 51.7636C25.7951 52.2664 22.0273 51.965 18.4514 50.8801L20.7481 43.3101C23.2361 44.0649 25.8574 44.2746 28.4337 43.9248C31.01 43.575 33.4806 42.674 35.6771 41.2831C37.8737 39.8922 39.7447 38.0442 41.1625 35.865C42.5804 33.6857 43.5118 31.2264 43.8934 28.6547C44.2749 26.0829 44.0976 23.4591 43.3735 20.9621C42.6495 18.4651 41.3956 16.1535 39.6975 14.1848C37.9993 12.2161 35.8967 10.6366 33.533 9.5539C31.1693 8.47121 28.5999 7.91077 26 7.91077V0Z" fill="#89CB36"/>
</svg>
