<svg width="52" height="52" viewBox="0 0 52 52" fill="none" xmlns="http://www.w3.org/2000/svg">
<circle cx="26" cy="26" r="26" fill="#4BCB36" fill-opacity="0.3"/>
<path d="M19.1066 26.268C19.9473 26.7707 20.3676 27.503 20.3676 28.465C20.3676 29.3057 20.0729 29.9687 19.4836 30.454C18.9029 30.9393 18.1099 31.182 17.1046 31.182C16.0906 31.182 15.2933 30.9393 14.7126 30.454C14.1319 29.9687 13.8416 29.3057 13.8416 28.465C13.8416 27.4943 14.2619 26.762 15.1026 26.268C14.4613 25.8087 14.1406 25.1803 14.1406 24.383C14.1406 23.5423 14.4223 22.888 14.9856 22.42C15.5576 21.952 16.2639 21.718 17.1046 21.718C17.9453 21.718 18.6473 21.952 19.2106 22.42C19.7739 22.888 20.0556 23.5423 20.0556 24.383C20.0556 25.189 19.7393 25.8173 19.1066 26.268ZM17.9496 23.694C17.7329 23.5033 17.4513 23.408 17.1046 23.408C16.7579 23.408 16.4763 23.5033 16.2596 23.694C16.0429 23.8847 15.9346 24.1447 15.9346 24.474C15.9346 24.8033 16.0429 25.0677 16.2596 25.267C16.4763 25.4577 16.7579 25.553 17.1046 25.553C17.4513 25.553 17.7329 25.4577 17.9496 25.267C18.1663 25.0677 18.2746 24.8033 18.2746 24.474C18.2746 24.1447 18.1663 23.8847 17.9496 23.694ZM16.0256 29.167C16.3029 29.3837 16.6626 29.492 17.1046 29.492C17.5466 29.492 17.9019 29.3837 18.1706 29.167C18.4479 28.9417 18.5866 28.6297 18.5866 28.231C18.5866 27.841 18.4479 27.5377 18.1706 27.321C17.9019 27.0957 17.5466 26.983 17.1046 26.983C16.6626 26.983 16.3029 27.0957 16.0256 27.321C15.7569 27.5377 15.6226 27.841 15.6226 28.231C15.6226 28.6297 15.7569 28.9417 16.0256 29.167ZM21.6203 31V29.141H23.4663V31H21.6203ZM24.4488 21.9H30.3248V23.421L27.2438 31H25.3458L28.3488 23.616H24.4488V21.9ZM34.4939 31.182C33.3586 31.182 32.4659 30.753 31.8159 29.895C31.1746 29.0283 30.8539 27.88 30.8539 26.45C30.8539 25.02 31.1746 23.876 31.8159 23.018C32.4659 22.1513 33.3586 21.718 34.4939 21.718C35.6379 21.718 36.5306 22.1513 37.1719 23.018C37.8133 23.876 38.1339 25.02 38.1339 26.45C38.1339 27.88 37.8133 29.0283 37.1719 29.895C36.5306 30.753 35.6379 31.182 34.4939 31.182ZM33.1159 28.673C33.4279 29.1757 33.8873 29.427 34.4939 29.427C35.1006 29.427 35.5599 29.1713 35.8719 28.66C36.1926 28.1487 36.3529 27.412 36.3529 26.45C36.3529 25.4793 36.1926 24.7383 35.8719 24.227C35.5599 23.7157 35.1006 23.46 34.4939 23.46C33.8873 23.46 33.4279 23.7157 33.1159 24.227C32.8039 24.7383 32.6479 25.4793 32.6479 26.45C32.6479 27.4207 32.8039 28.1617 33.1159 28.673Z" fill="white"/>
<path d="M26 0C30.7958 5.71895e-08 35.4982 1.32645 39.5871 3.83264C43.6759 6.33883 46.9919 9.9271 49.1684 14.2006C51.3448 18.4741 52.2969 23.2663 51.9193 28.0473C51.5416 32.8282 49.849 37.4115 47.0287 41.2903C44.2083 45.1692 40.3701 48.1924 35.9384 50.0256C31.5068 51.8587 26.6545 52.4305 21.9182 51.6776C17.1818 50.9247 12.746 48.8764 9.10131 45.7594C5.4566 42.6424 2.74502 38.578 1.26648 34.0158L8.79191 31.5769C9.82059 34.751 11.7071 37.5788 14.2429 39.7474C16.7787 41.916 19.8649 43.3411 23.1601 43.8649C26.4554 44.3887 29.8313 43.991 32.9146 42.7155C35.9978 41.4401 38.6682 39.3368 40.6305 36.6381C42.5927 33.9394 43.7703 30.7506 44.0331 27.4244C44.2958 24.0981 43.6334 20.764 42.1192 17.7907C40.6049 14.8174 38.2978 12.3209 35.4531 10.5773C32.6083 8.83363 29.3366 7.91077 26 7.91077V0Z" fill="#4BCB36"/>
</svg>
