<svg width="136" height="31" viewBox="0 0 136 31" fill="none" xmlns="http://www.w3.org/2000/svg">
<path d="M52.65 24H48.1L42.5 15.9V24H38.5V6.5H42.5V14.1L47.85 6.5H52.4L46.5 15.025L52.65 24ZM54.0244 10V6.5H57.7744V10H54.0244ZM54.0244 24V11.5H57.7744V24H54.0244ZM67.5186 11.15C68.7019 11.15 69.6602 11.5917 70.3936 12.475C71.1436 13.3417 71.5186 14.5417 71.5186 16.075V24H67.7686V16.4C67.7686 15.8 67.6102 15.35 67.2936 15.05C66.9936 14.75 66.5936 14.6 66.0936 14.6C64.8769 14.6 64.2686 15.3 64.2686 16.7V24H60.5186V11.5H64.2686V12.65C64.9186 11.65 66.0019 11.15 67.5186 11.15ZM84.6463 22.45C83.363 23.7167 81.7963 24.35 79.9463 24.35C78.0963 24.35 76.5296 23.7167 75.2463 22.45C73.963 21.1667 73.3213 19.6 73.3213 17.75C73.3213 15.9 73.963 14.3417 75.2463 13.075C76.5296 11.7917 78.0963 11.15 79.9463 11.15C81.7963 11.15 83.363 11.7917 84.6463 13.075C85.9296 14.3417 86.5713 15.9 86.5713 17.75C86.5713 19.6 85.9296 21.1667 84.6463 22.45ZM77.8963 19.875C78.4463 20.425 79.1296 20.7 79.9463 20.7C80.763 20.7 81.4463 20.425 81.9963 19.875C82.5463 19.325 82.8213 18.6167 82.8213 17.75C82.8213 16.8833 82.5463 16.175 81.9963 15.625C81.4463 15.075 80.763 14.8 79.9463 14.8C79.1296 14.8 78.4463 15.075 77.8963 15.625C77.3463 16.175 77.0713 16.8833 77.0713 17.75C77.0713 18.6167 77.3463 19.325 77.8963 19.875ZM90.1674 12.4C91.1674 11.5667 92.4007 11.15 93.8674 11.15C95.3341 11.15 96.5674 11.5833 97.5674 12.45C98.5674 13.3 99.0674 14.525 99.0674 16.125V24H95.4174V23.025C94.6507 23.9083 93.5757 24.35 92.1924 24.35C91.0257 24.35 90.0424 24.0083 89.2424 23.325C88.459 22.6417 88.0674 21.6833 88.0674 20.45C88.0674 19.2167 88.459 18.2583 89.2424 17.575C90.0424 16.8917 91.0257 16.55 92.1924 16.55C93.4924 16.55 94.5674 16.8667 95.4174 17.5V16.375C95.4174 15.1917 94.9007 14.6 93.8674 14.6C93.3674 14.6 92.984 14.7167 92.7174 14.95C92.4507 15.1833 92.3174 15.4917 92.3174 15.875H88.6674C88.6674 14.3917 89.1674 13.2333 90.1674 12.4ZM93.5174 21.7C94.1174 21.7 94.584 21.5833 94.9174 21.35C95.2507 21.1167 95.4174 20.8167 95.4174 20.45C95.4174 20.0667 95.2507 19.7667 94.9174 19.55C94.584 19.3167 94.1174 19.2 93.5174 19.2C92.9674 19.2 92.5424 19.3167 92.2424 19.55C91.959 19.7667 91.8174 20.0667 91.8174 20.45C91.8174 20.8333 91.959 21.1417 92.2424 21.375C92.5424 21.5917 92.9674 21.7 93.5174 21.7ZM105.235 13.475C105.435 12.7583 105.827 12.2083 106.41 11.825C106.994 11.4417 107.685 11.25 108.485 11.25V15.5C107.619 15.3667 106.86 15.5083 106.21 15.925C105.56 16.3417 105.235 17.0667 105.235 18.1V24H101.485V11.5H105.235V13.475ZM113.159 19.25C113.576 20.6333 114.551 21.325 116.084 21.325C116.534 21.325 116.959 21.2417 117.359 21.075C117.759 20.8917 118.051 20.6583 118.234 20.375L121.884 20.35C121.484 21.65 120.768 22.6417 119.734 23.325C118.701 24.0083 117.468 24.35 116.034 24.35C114.001 24.35 112.359 23.725 111.109 22.475C109.859 21.225 109.234 19.65 109.234 17.75C109.234 15.8667 109.859 14.3 111.109 13.05C112.376 11.7833 113.984 11.15 115.934 11.15C117.751 11.15 119.251 11.775 120.434 13.025C121.634 14.275 122.234 15.85 122.234 17.75C122.234 18.2833 122.184 18.7833 122.084 19.25H113.159ZM113.134 16.4H118.509C118.143 15.1167 117.276 14.475 115.909 14.475C114.476 14.475 113.551 15.1167 113.134 16.4ZM125.788 12.4C126.788 11.5667 128.021 11.15 129.488 11.15C130.954 11.15 132.188 11.5833 133.188 12.45C134.188 13.3 134.688 14.525 134.688 16.125V24H131.038V23.025C130.271 23.9083 129.196 24.35 127.813 24.35C126.646 24.35 125.663 24.0083 124.863 23.325C124.079 22.6417 123.688 21.6833 123.688 20.45C123.688 19.2167 124.079 18.2583 124.863 17.575C125.663 16.8917 126.646 16.55 127.813 16.55C129.113 16.55 130.188 16.8667 131.038 17.5V16.375C131.038 15.1917 130.521 14.6 129.488 14.6C128.988 14.6 128.604 14.7167 128.338 14.95C128.071 15.1833 127.938 15.4917 127.938 15.875H124.288C124.288 14.3917 124.788 13.2333 125.788 12.4ZM129.138 21.7C129.738 21.7 130.204 21.5833 130.538 21.35C130.871 21.1167 131.038 20.8167 131.038 20.45C131.038 20.0667 130.871 19.7667 130.538 19.55C130.204 19.3167 129.738 19.2 129.138 19.2C128.588 19.2 128.163 19.3167 127.863 19.55C127.579 19.7667 127.438 20.0667 127.438 20.45C127.438 20.8333 127.579 21.1417 127.863 21.375C128.163 21.5917 128.588 21.7 129.138 21.7Z" fill="white"/>
<path d="M13.2656 9.49151C13.2656 8.09576 12.1301 6.96027 10.7344 6.96027C9.33863 6.96027 8.20312 8.09576 8.20312 9.49151C8.20312 10.8873 9.33863 12.0228 10.7344 12.0228C12.1301 12.0228 13.2656 10.8873 13.2656 9.49151ZM9.14062 9.49151C9.14062 8.6127 9.85556 7.89777 10.7344 7.89777C11.6132 7.89777 12.3281 8.6127 12.3281 9.49151C12.3281 10.3703 11.6132 11.0853 10.7344 11.0853C9.85556 11.0853 9.14062 10.3703 9.14062 9.49151Z" fill="white"/>
<path d="M6.64567 15.5527C7.24797 15.2458 7.69469 14.7227 7.90361 14.0799C8.11248 13.437 8.05853 12.7512 7.75164 12.1489C7.44475 11.5467 6.92167 11.0999 6.27883 10.891C5.63589 10.6821 4.95016 10.7361 4.34791 11.043C3.74561 11.3499 3.29889 11.873 3.08997 12.5158C2.88109 13.1587 2.93505 13.8445 3.24194 14.4467C3.54883 15.049 4.07191 15.4957 4.71475 15.7046C4.97219 15.7883 5.23642 15.8298 5.49944 15.8298C5.89333 15.8298 6.2845 15.7367 6.64567 15.5527ZM5.00444 14.813C4.59972 14.6816 4.27042 14.4003 4.0772 14.0211C3.88398 13.642 3.85 13.2102 3.98153 12.8055C4.11302 12.4008 4.39427 12.0715 4.77344 11.8783C5.00083 11.7624 5.24706 11.7038 5.49508 11.7038C5.66064 11.7038 5.82705 11.73 5.98909 11.7826C6.39381 11.9141 6.72311 12.1954 6.91633 12.5745C7.10955 12.9537 7.14353 13.3854 7.012 13.7901C6.88052 14.1949 6.59927 14.5241 6.22009 14.7174C5.84088 14.9105 5.40916 14.9445 5.00444 14.813Z" fill="white"/>
<path d="M6.00729 21.5041C6.4556 21.8298 6.97591 21.9866 7.49168 21.9866C8.27506 21.9866 9.04812 21.625 9.54274 20.9442C9.94015 20.3972 10.1007 19.7282 9.99495 19.0604C9.88915 18.3927 9.52971 17.8061 8.98273 17.4087C8.43574 17.0113 7.76688 16.8507 7.09901 16.9565C6.43123 17.0623 5.84463 17.4217 5.44727 17.9687C4.62701 19.0978 4.87821 20.6838 6.00729 21.5041ZM6.20581 18.5197C6.45598 18.1754 6.82531 17.949 7.24573 17.8824C7.33015 17.8691 7.41457 17.8625 7.49843 17.8625C7.83218 17.8625 8.15656 17.9672 8.43176 18.1672C9.14266 18.6837 9.30082 19.6822 8.78431 20.3931C8.26779 21.104 7.26926 21.2622 6.55835 20.7457C5.84745 20.2292 5.68929 19.2306 6.20581 18.5197Z" fill="white"/>
<path d="M13.9764 21.9866C14.4922 21.9866 15.0126 21.8298 15.4609 21.5042C16.5899 20.6838 16.8411 19.0978 16.0208 17.9687C15.6234 17.4218 15.0368 17.0623 14.3691 16.9565C13.7013 16.8508 13.0324 17.0114 12.4854 17.4087C11.9384 17.8061 11.5789 18.3927 11.4732 19.0605C11.3674 19.7282 11.528 20.3972 11.9254 20.9442C12.4201 21.6251 13.1929 21.9866 13.9764 21.9866ZM13.0364 18.1672C13.3807 17.917 13.8018 17.8158 14.2224 17.8825C14.6428 17.9491 15.0121 18.1754 15.2623 18.5198C15.7788 19.2307 15.6207 20.2292 14.9097 20.7457C14.1988 21.2622 13.2003 21.1041 12.6838 20.3932C12.1673 19.6823 12.3255 18.6837 13.0364 18.1672Z" fill="white"/>
<path d="M15.1913 10.8909C14.5484 11.0999 14.0253 11.5466 13.7185 12.1489C13.4116 12.7512 13.3577 13.4369 13.5665 14.0798C13.7755 14.7227 14.2222 15.2458 14.8245 15.5526C15.1856 15.7366 15.5768 15.8297 15.9707 15.8297C16.2337 15.8297 16.4981 15.7882 16.7554 15.7046C17.3983 15.4957 17.9214 15.049 18.2282 14.4467C18.5351 13.8444 18.5891 13.1587 18.3802 12.5158C18.1713 11.8729 17.7245 11.3498 17.1222 11.043C16.52 10.7361 15.8342 10.6822 15.1913 10.8909ZM16.6967 11.8783C17.0758 12.0715 17.3571 12.4007 17.4886 12.8055C17.6201 13.2102 17.5861 13.6419 17.3929 14.0211C17.1997 14.4003 16.8704 14.6815 16.4657 14.813C16.0609 14.9445 15.6292 14.9106 15.2501 14.7173C14.8709 14.5241 14.5896 14.1949 14.4581 13.7901C14.3266 13.3854 14.3606 12.9537 14.5538 12.5745C14.747 12.1953 15.0763 11.9141 15.4811 11.7826C15.6431 11.7299 15.8095 11.7038 15.9751 11.7038C16.223 11.7038 16.4693 11.7624 16.6967 11.8783Z" fill="white"/>
<path d="M12.3399 15C12.3399 14.1137 11.6188 13.3926 10.7324 13.3926C9.84608 13.3926 9.125 14.1137 9.125 15C9.125 15.8864 9.84608 16.6075 10.7324 16.6075C11.6188 16.6075 12.3399 15.8864 12.3399 15ZM10.0625 15C10.0625 14.6306 10.363 14.3301 10.7324 14.3301C11.1019 14.3301 11.4024 14.6306 11.4024 15C11.4024 15.3694 11.1019 15.67 10.7324 15.67C10.363 15.67 10.0625 15.3694 10.0625 15Z" fill="white"/>
<path d="M23.8627 23.7073C23.3326 23.1772 22.6279 22.8853 21.8783 22.8853C21.1287 22.8853 20.424 23.1772 19.8939 23.7073C19.1913 24.4099 18.2571 24.7969 17.2634 24.7969H15.1344C16.3078 24.2693 17.3877 23.5273 18.3247 22.5903C20.3522 20.5629 21.4688 17.8673 21.4688 15C21.4688 12.9028 20.8638 10.871 19.7192 9.12427C19.5774 8.9077 19.2868 8.84719 19.0702 8.98908C18.8537 9.13097 18.7932 9.42155 18.9351 9.63806C19.9793 11.2317 20.5312 13.0859 20.5312 15C20.5312 20.402 16.1364 24.7969 10.7344 24.7969C5.33236 24.7969 0.9375 20.402 0.9375 15C0.9375 9.59798 5.33236 5.20312 10.7344 5.20312C12.6517 5.20312 14.5086 5.75681 16.104 6.80438C16.3204 6.9465 16.611 6.88627 16.7531 6.6698C16.8952 6.45338 16.835 6.1628 16.6185 6.02067C14.8698 4.87252 12.8351 4.26562 10.7344 4.26562C7.86713 4.26562 5.17148 5.38219 3.14405 7.40967C1.11661 9.43716 0 12.1328 0 15C0 17.8673 1.11656 20.5629 3.14405 22.5904C5.17148 24.6178 7.86713 25.7344 10.7344 25.7344H17.2634C18.5075 25.7344 19.6771 25.2499 20.5568 24.3702C20.9098 24.0172 21.3791 23.8228 21.8783 23.8228C22.3775 23.8228 22.8468 24.0172 23.1998 24.3702C23.3828 24.5532 23.6796 24.5532 23.8627 24.3702C24.0458 24.1871 24.0458 23.8903 23.8627 23.7073Z" fill="white"/>
<path d="M17.9961 8.21297C18.1194 8.21297 18.2403 8.16328 18.3275 8.0761C18.4147 7.98844 18.4648 7.86797 18.4648 7.74469C18.4648 7.62094 18.4147 7.50047 18.3275 7.41281C18.2403 7.32563 18.1194 7.27594 17.9961 7.27594C17.8728 7.27594 17.7519 7.32563 17.6647 7.41281C17.5775 7.50047 17.5273 7.62094 17.5273 7.74469C17.5273 7.86797 17.5775 7.98891 17.6647 8.0761C17.7519 8.16328 17.8728 8.21297 17.9961 8.21297Z" fill="white"/>
</svg>
