<svg width="78" height="107" viewBox="0 0 78 107" fill="none" xmlns="http://www.w3.org/2000/svg">
<rect width="78" height="107" rx="5" fill="#191E2E"/>
<g clip-path="url(#clip0_1_24538)">
<path d="M48.3013 47.8109C47.8821 47.3718 47.3032 47.1123 46.6445 47.1123H43.3308V47.0723C43.3308 46.5733 43.1312 46.0942 42.7918 45.7748C42.4525 45.4355 41.9933 45.2358 41.4943 45.2358H35.5057C34.9867 45.2358 34.5276 45.4355 34.1882 45.7748C33.8489 46.1142 33.6492 46.5733 33.6492 47.0723V47.1123H30.3555C29.6968 47.1123 29.1179 47.3718 28.6987 47.8109C28.2795 48.2301 28 48.829 28 49.4678V59.4088C28 60.0676 28.2595 60.6465 28.6987 61.0657C29.1179 61.4849 29.7167 61.7644 30.3555 61.7644H46.6445C47.3032 61.7644 47.8821 61.5049 48.3013 61.0657C48.7205 60.6465 49 60.0476 49 59.4088V49.4678C49 48.809 48.7405 48.2301 48.3013 47.8109ZM47.962 59.4088H47.942C47.942 59.7682 47.8023 60.0876 47.5627 60.3271C47.3232 60.5666 47.0038 60.7064 46.6445 60.7064H30.3555C29.9962 60.7064 29.6768 60.5666 29.4373 60.3271C29.1977 60.0876 29.058 59.7682 29.058 59.4088V49.4678C29.058 49.1085 29.1977 48.7891 29.4373 48.5495C29.6768 48.31 29.9962 48.1703 30.3555 48.1703H34.2082C34.5076 48.1703 34.7471 47.9307 34.7471 47.6313V47.0524C34.7471 46.8328 34.827 46.6332 34.9667 46.4934C35.1065 46.3537 35.3061 46.2739 35.5257 46.2739H41.4943C41.7139 46.2739 41.9135 46.3537 42.0532 46.4934C42.193 46.6332 42.2728 46.8328 42.2728 47.0524V47.6313C42.2728 47.9307 42.5124 48.1703 42.8118 48.1703H46.6644C47.0238 48.1703 47.3432 48.31 47.5827 48.5495C47.8222 48.7891 47.962 49.1085 47.962 49.4678V59.4088Z" fill="#404961"/>
<path d="M38.5005 49.5273C37.1431 49.5273 35.9054 50.0863 35.0271 50.9646C34.1288 51.8629 33.5898 53.0806 33.5898 54.438C33.5898 55.7954 34.1488 57.033 35.0271 57.9114C35.9254 58.8097 37.1431 59.3486 38.5005 59.3486C39.8579 59.3486 41.0955 58.7897 41.9739 57.9114C42.8722 57.0131 43.4111 55.7954 43.4111 54.438C43.4111 53.0806 42.8522 51.8429 41.9739 50.9646C41.0955 50.0863 39.8579 49.5273 38.5005 49.5273ZM41.2153 57.1728C40.5166 57.8515 39.5585 58.2907 38.5005 58.2907C37.4425 58.2907 36.4843 57.8515 35.7857 57.1728C35.087 56.4741 34.6678 55.5159 34.6678 54.458C34.6678 53.4 35.107 52.4418 35.7857 51.7431C36.4843 51.0445 37.4425 50.6253 38.5005 50.6253C39.5585 50.6253 40.5166 51.0644 41.2153 51.7431C41.914 52.4418 42.3332 53.4 42.3332 54.458C42.3532 55.5159 41.914 56.4741 41.2153 57.1728Z" fill="#404961"/>
<path d="M45.607 51.4641C46.1473 51.4641 46.5852 51.0262 46.5852 50.4859C46.5852 49.9457 46.1473 49.5078 45.607 49.5078C45.0668 49.5078 44.6289 49.9457 44.6289 50.4859C44.6289 51.0262 45.0668 51.4641 45.607 51.4641Z" fill="#404961"/>
</g>
<defs>
<clipPath id="clip0_1_24538">
<rect width="21" height="21" fill="white" transform="translate(28 43)"/>
</clipPath>
</defs>
</svg>
