<svg width="115" height="115" viewBox="0 0 115 115" fill="none" xmlns="http://www.w3.org/2000/svg">
<circle cx="57.5" cy="57.5" r="57.5" fill="#353B50"/>
<path d="M71.2097 67.4519L64.2042 63.9495C63.5435 63.6188 63.1328 62.9544 63.1328 62.2152V59.7358C63.3007 59.5305 63.4775 59.2965 63.6601 59.0384C64.5687 57.7551 65.2969 56.3265 65.8263 54.7858C66.8611 54.3113 67.5328 53.2883 67.5328 52.1333V49.2C67.5328 48.4938 67.2688 47.8096 66.7995 47.275V43.3744C66.8405 42.9711 67.0019 40.5701 65.2653 38.5894C63.7591 36.8712 61.3149 36 57.9995 36C54.6841 36 52.2399 36.8712 50.7336 38.5887C48.9971 40.5694 49.1584 42.9711 49.1995 43.3744V47.275C48.7301 47.8096 48.4661 48.4938 48.4661 49.2V52.1333C48.4661 53.0258 48.8717 53.8581 49.5639 54.4133C50.2357 57.0731 51.6415 59.0773 52.1328 59.7204V62.147C52.1328 62.8569 51.7456 63.5081 51.123 63.8483L44.5809 67.4167C42.4535 68.5776 41.1328 70.8025 41.1328 73.2255V75.6C41.1328 79.0804 52.1658 80 57.9995 80C63.8331 80 74.8661 79.0804 74.8661 75.6V73.3685C74.8661 70.8473 73.4647 68.5798 71.2097 67.4519ZM73.3995 75.6C73.3995 76.5951 67.964 78.5333 57.9995 78.5333C48.0349 78.5333 42.5995 76.5951 42.5995 75.6V73.2255C42.5995 71.3401 43.6276 69.6072 45.2827 68.7052L51.8248 65.1368C52.9197 64.5391 53.5995 63.3929 53.5995 62.147V59.1997L53.4286 58.9959C53.411 58.9746 51.6136 56.8003 50.9279 53.8149L50.8612 53.5245L50.6111 53.3631C50.1865 53.0889 49.9328 52.6291 49.9328 52.1333V49.2C49.9328 48.7886 50.1073 48.4051 50.4241 48.1183L50.6661 47.9005V43.3333L50.6595 43.2373C50.6573 43.2175 50.408 41.1847 51.8365 39.5552C53.0517 38.1692 55.1255 37.4667 57.9995 37.4667C60.8631 37.4667 62.9326 38.1641 64.1492 39.5405C65.577 41.1546 65.3409 43.2197 65.3394 43.2373L65.3328 47.9005L65.5748 48.1191C65.8916 48.4051 66.0661 48.7886 66.0661 49.2V52.1333C66.0661 52.7735 65.6467 53.3338 65.0233 53.5259L64.6581 53.6381L64.5408 54.0011C64.0502 55.5272 63.3513 56.9367 62.4625 58.1907C62.2447 58.4994 62.0328 58.7729 61.8487 58.9819L61.6661 59.1902V62.2152C61.6661 63.5132 62.387 64.6799 63.5479 65.2607L70.5534 68.7631C72.309 69.6409 73.3995 71.4053 73.3995 73.3685V75.6Z" fill="#505772"/>
</svg>
